<svg version="1.1" viewBox="253.952 206.848 561.152 608.256" xmlns="http://www.w3.org/2000/svg" style="max-height: 500px" width="561.152" height="608.256">
	<path fill-rule="evenodd" fill="black" stroke="none" d="M 256.653 211.680 C 256.294 212.039, 256 347.033, 256 511.667 L 256 811 358 811 L 460 811 460 735.500 L 460 660 463.902 660 C 467.387 660, 468.009 660.394, 469.718 663.689 C 471.752 667.608, 474 669.166, 474 666.656 C 474 665.825, 475.186 664.212, 476.635 663.073 C 478.959 661.244, 480.647 661, 490.956 661 L 502.643 661 515.255 678.250 C 533.759 703.558, 567.095 749.448, 590.762 782.191 L 611.500 810.883 708.809 810.941 C 786.402 810.988, 805.966 810.747, 805.369 809.750 C 804.957 809.063, 801.171 804, 796.956 798.500 C 788.024 786.844, 732.579 710.634, 682.008 640.500 C 662.575 613.550, 640.899 583.526, 633.838 573.780 C 626.777 564.033, 621 555.879, 621 555.658 C 621 555.438, 623.188 554.967, 625.863 554.613 C 639.784 552.766, 670.586 542.099, 686.500 533.614 C 744.229 502.834, 770.692 455.699, 769.918 385.033 C 769.563 352.531, 764.123 327.169, 752.535 303.988 C 737.286 273.484, 716.716 252.964, 685 236.617 C 659.957 223.709, 631.061 216.035, 594.141 212.486 C 581.318 211.254, 552.227 211.011, 418.044 211.018 C 329.638 211.023, 257.013 211.321, 256.653 211.680 M 539.209 272.464 C 530.934 274.341, 523.205 277.949, 519.482 281.672 C 516.478 284.676, 516.464 284.679, 501.488 285.309 C 473.786 286.475, 458.497 291.604, 445.750 304.008 C 442.038 307.620, 439 311.036, 439 311.598 C 439 312.161, 442.712 311.386, 447.250 309.877 C 458.382 306.176, 469.583 304.744, 487.500 304.733 C 507.131 304.721, 525.757 307.759, 530.418 311.732 C 532.113 313.178, 532.702 314.064, 531.727 313.703 C 530.710 313.325, 527.569 314.100, 524.353 315.523 C 516.330 319.071, 514.338 318.524, 521.702 314.795 C 527.974 311.618, 528.899 310, 524.441 310 C 523.099 310, 517.838 309.246, 512.750 308.325 C 500.769 306.155, 469.207 305.881, 460.500 307.871 C 448.505 310.613, 448.411 311.104, 459.500 313.115 C 465 314.113, 471.975 315.177, 475 315.481 C 506.593 318.648, 521.735 323.858, 526.617 333.243 C 530.427 340.567, 530.073 341.169, 524.963 336.058 C 522.204 333.299, 519.136 330.608, 518.146 330.078 C 516.413 329.151, 516.413 329.308, 518.140 334.307 C 520.454 341.003, 520.423 345.472, 518.024 350.756 C 513.632 360.432, 507.508 365.861, 487.252 378.037 C 476.455 384.527, 462.429 394.762, 463.231 395.565 C 463.390 395.723, 467.858 394.341, 473.161 392.493 C 478.464 390.646, 486.255 388.654, 490.474 388.067 C 499.671 386.788, 514 386.659, 514 387.856 C 514 388.326, 510.680 388.962, 506.621 389.269 C 491.638 390.403, 471.755 398.072, 455.407 409.025 C 433.219 423.889, 403.840 461.898, 378.518 508.500 L 374.714 515.500 385.607 504.806 C 398.234 492.410, 401.264 490.016, 418.639 478.708 C 433.597 468.972, 434 468.727, 434 469.365 C 434 469.630, 429.163 473.576, 423.250 478.133 C 409.310 488.877, 392.465 505.557, 380.968 520 C 369.545 534.352, 348.736 565.712, 337.506 585.500 C 335.946 588.250, 333.956 591.625, 333.085 593 C 331.524 595.462, 331.533 595.477, 333.641 594 C 334.819 593.175, 342.469 586.855, 350.641 579.956 C 370.443 563.239, 380.400 555.499, 399.500 541.975 C 408.300 535.744, 417.075 529.515, 419 528.134 C 425.150 523.722, 419.932 528.406, 404 541.601 C 395.475 548.661, 384.450 558.041, 379.500 562.447 C 365.379 575.013, 336.568 603.590, 327.974 613.555 C 320.293 622.459, 297.704 652, 298.575 652 C 298.820 652, 303.178 649.238, 308.260 645.862 C 313.342 642.486, 327.625 633.428, 340 625.732 C 378.639 601.704, 428.467 568.189, 448 553.090 C 458.476 544.992, 458.773 544.674, 453 547.750 C 449.975 549.362, 446.442 550.947, 445.148 551.273 C 443.291 551.741, 443.683 551.107, 447.014 548.256 C 449.334 546.270, 453.606 543.038, 456.507 541.073 C 474.123 529.141, 507.289 501.806, 517.404 490.880 C 521.032 486.962, 524 484.099, 524 484.517 C 524 485.984, 512.411 499.421, 499.133 513.348 C 483.012 530.258, 483.601 532.414, 501 520.177 C 528.925 500.538, 552.041 473.349, 560.243 450.500 C 567.738 429.618, 564.799 410.444, 552.343 398.962 C 547.078 394.109, 548.118 393.782, 554.156 398.393 C 567.942 408.920, 573.170 427.012, 568.104 446.668 C 565.414 457.107, 563.164 462.295, 556.482 473.464 C 541.153 499.086, 514.487 524, 481.122 543.873 C 478.164 545.635, 475.561 546.895, 475.339 546.672 C 475.116 546.450, 476.524 544.365, 478.467 542.039 C 482.736 536.929, 482.946 536.078, 479.172 539.178 C 459.634 555.222, 443.986 567.273, 434.656 573.461 L 423.275 581.008 419.478 589.254 C 415.688 597.486, 410.702 611.035, 411.258 611.591 C 411.419 611.753, 414.690 609.227, 418.526 605.978 C 422.362 602.729, 428.875 598.156, 433 595.817 C 437.125 593.477, 441.038 590.832, 441.696 589.940 C 446.342 583.635, 451.252 577.919, 451.666 578.333 C 451.938 578.604, 451.467 579.884, 450.620 581.176 C 446.100 588.075, 446.599 602.250, 451.664 610.843 L 454.410 615.500 455.628 611.500 C 456.298 609.300, 456.881 608.028, 456.923 608.673 C 457.026 610.245, 461.922 616, 463.156 616 C 463.700 616, 463.834 615.053, 463.459 613.870 C 462.818 611.850, 463.016 611.775, 467.319 612.421 C 471.380 613.030, 472.177 612.807, 474.918 610.300 C 477.143 608.266, 478.425 605.722, 479.604 601 C 480.497 597.425, 481.863 593.263, 482.639 591.750 C 484.094 588.917, 483.319 588.081, 481.200 590.200 C 480.540 590.860, 480 590.966, 480 590.437 C 480 589.907, 486.376 583.179, 494.168 575.487 C 507.306 562.518, 509.260 561.478, 501.662 571.500 C 499.994 573.700, 498.150 576.142, 497.565 576.927 C 496.979 577.712, 499.200 576.646, 502.500 574.559 C 526.483 559.387, 544.405 539.302, 557.874 512.500 C 560.638 507, 562.922 502.751, 562.950 503.059 C 563.084 504.553, 556.335 521.636, 552.056 530.630 C 547.006 541.247, 541.363 550.243, 534.708 558.290 C 532.529 560.925, 530.935 563.269, 531.166 563.499 C 532.029 564.363, 551.163 548.745, 560.207 539.795 C 582.662 517.573, 595.439 493.570, 600.429 464.236 C 601.247 459.431, 602.042 452.953, 602.197 449.839 C 602.352 446.725, 602.885 444.429, 603.382 444.736 C 603.900 445.057, 604.033 452.167, 603.692 461.397 C 603.106 477.266, 599.799 497.770, 596.974 503.049 C 596.349 504.216, 596.053 505.386, 596.315 505.648 C 597.229 506.562, 608.351 488.550, 613.134 478.412 C 623.451 456.539, 627.768 432.108, 624.546 413.829 C 622.821 404.045, 618.741 390.412, 615.811 384.645 C 612.555 378.237, 615.548 381.517, 620.021 389.259 C 628.512 403.957, 633.719 420.892, 634.854 437.500 L 635.537 447.500 637.686 440.500 C 643.928 420.166, 643.502 396.953, 636.546 378.512 C 633.719 371.016, 626.424 358.599, 623.059 355.553 C 619.308 352.159, 620.926 351.846, 625.058 355.167 C 630.658 359.667, 639.360 371.290, 644.149 380.665 C 648.110 388.419, 648.145 388.453, 647.510 384 C 645.199 367.774, 638.954 352.205, 629.785 339.809 C 621.431 328.516, 617.210 324.122, 610.595 319.830 C 601.700 314.060, 606.437 315.231, 616.342 321.250 C 625.181 326.622, 631.099 331.641, 635.688 337.657 C 637.113 339.526, 638.451 340.882, 638.662 340.671 C 638.873 340.460, 637.724 337.342, 636.108 333.742 C 627.378 314.284, 611.042 297.605, 594.510 291.272 L 588.500 288.969 593 289.606 C 598.747 290.419, 610.199 294.463, 616 297.728 L 620.500 300.261 616 295.539 C 606.934 286.026, 593.152 277.790, 579.829 273.924 C 570.249 271.145, 548.471 270.362, 539.209 272.464 M 533.141 288.982 C 528.278 291.233, 525.399 291.482, 521.481 289.993 C 516.622 288.145, 516.833 290.143, 521.835 293.342 C 524.552 295.079, 528.939 297.962, 531.584 299.750 C 536.295 302.935, 538.655 303.869, 537.575 302.122 C 537.277 301.639, 538.312 300.988, 539.877 300.675 C 541.441 300.362, 544.140 298.912, 545.874 297.453 C 548.034 295.635, 550.203 294.793, 552.763 294.777 L 556.500 294.753 552.707 293.414 C 550.621 292.678, 547.621 291.154, 546.041 290.029 C 541.758 286.980, 538.108 286.683, 533.141 288.982 M 504.776 290.733 C 507.128 290.945, 510.728 290.942, 512.776 290.727 C 514.824 290.512, 512.900 290.339, 508.500 290.343 C 504.100 290.346, 502.424 290.522, 504.776 290.733 M 536.937 291.576 C 535.853 292.883, 535.874 293.308, 537.064 294.061 C 540.374 296.155, 543.578 294.670, 542.396 291.590 C 541.614 289.550, 538.624 289.543, 536.937 291.576 M 453.728 531.268 C 453.034 533.075, 425.551 554.352, 388 582.155 C 368.864 596.323, 349.802 610.977, 347.500 613.289 C 345.781 615.016, 348.666 613.177, 371.500 597.992 C 397.007 581.029, 404.764 575.580, 418.500 564.974 C 429.451 556.518, 455.847 531.514, 454.863 530.529 C 454.524 530.191, 454.013 530.523, 453.728 531.268 M 407.500 591.321 C 404.617 593.530, 397.017 598.090, 375.500 610.519 C 370 613.696, 359.425 619.941, 352 624.396 C 344.575 628.852, 337.616 632.953, 336.536 633.510 C 335.456 634.067, 333.164 636.993, 331.441 640.011 C 329.719 643.030, 323.003 654.725, 316.518 666 C 303.094 689.337, 288.923 717.214, 283.676 730.606 C 279.999 739.993, 277.357 751.881, 278.365 754.508 C 280.706 760.608, 295.317 747.987, 304.906 731.581 C 308.164 726.008, 314.295 714.710, 318.532 706.474 C 334.743 674.964, 351.177 644.009, 351.947 643.533 C 352.389 643.260, 346.928 655.966, 339.811 671.768 C 332.695 687.571, 324.828 705.225, 322.329 711 C 318.077 720.825, 312 737.395, 312 739.163 C 312 741.825, 323.629 734.041, 332.648 725.342 C 342.496 715.844, 352.737 696.827, 370.530 655 C 375.326 643.725, 379.710 634.050, 380.272 633.500 C 380.965 632.822, 381.052 633.144, 380.542 634.500 C 375.594 647.655, 357.943 701.325, 358.258 702.259 C 358.953 704.323, 369.576 692.402, 374.386 684.159 C 380.287 674.048, 385.795 661.329, 392.564 642.184 C 395.614 633.558, 399.698 622.225, 401.640 617 C 410.408 593.406, 411.918 589.001, 411.232 589.011 C 410.829 589.017, 409.150 590.057, 407.500 591.321 M 511.028 600.553 C 508.971 602.003, 506.119 603.012, 504.028 603.030 C 500.886 603.057, 500.719 603.185, 502.500 604.191 C 505.320 605.784, 518.909 617.184, 522.498 620.967 L 525.497 624.128 516.498 623.865 C 507.442 623.601, 504.653 624.303, 501.982 627.522 C 499.939 629.983, 502.608 631.254, 506.064 629.467 C 507.539 628.704, 509.024 628.358, 509.364 628.697 C 510.361 629.694, 518.855 631.126, 528 631.838 C 537.159 632.551, 540.924 634.199, 548.301 640.725 C 551.579 643.625, 552.748 644.061, 556.801 643.895 C 560.212 643.756, 561.969 643.128, 563.210 641.602 L 564.919 639.500 568.018 642.577 C 570.238 644.783, 571.338 647.050, 571.899 650.577 C 572.676 655.461, 572.692 655.477, 573.841 652.685 C 575.440 648.801, 575.267 646.184, 573.095 641.401 C 571.391 637.651, 566.507 633, 564.272 633 C 563.766 633, 561.138 631.426, 558.433 629.503 C 555.041 627.091, 551.105 625.464, 545.757 624.262 C 541.481 623.300, 538 621.992, 538 621.345 C 538 620.700, 535.104 617.868, 531.564 615.051 C 528.024 612.234, 522.737 607.269, 519.814 604.018 L 514.500 598.105 511.028 600.553 M 475.726 612.703 C 474.789 613.639, 471.883 614.652, 469.266 614.953 L 464.510 615.500 474.005 622.633 C 483.237 629.568, 497.755 642.677, 496.916 643.320 C 495.362 644.512, 486.675 646.223, 482.617 646.135 C 478.219 646.040, 477.351 646.413, 473.867 649.897 C 470.385 653.380, 470 654.274, 470 658.882 C 470 662.765, 470.362 664, 471.500 664 C 472.325 664, 473 663.303, 473 662.450 C 473 659.439, 476.065 655.022, 478.595 654.387 C 480.003 654.034, 482.185 654.296, 483.444 654.970 C 485.333 655.981, 487.256 655.815, 494.408 654.023 C 501.694 652.198, 505.301 651.902, 516.963 652.175 C 529.745 652.474, 531.035 652.678, 533.237 654.750 C 534.553 655.987, 536.830 657, 538.299 657 C 542.547 657, 547.207 661.870, 547.952 667.089 L 548.582 671.500 550.363 668.159 C 552.426 664.292, 551.869 658.225, 549.163 655.064 C 545.762 651.093, 533.787 645.561, 526 644.363 L 518.500 643.211 526.128 643.105 C 530.872 643.040, 535.113 643.567, 537.346 644.500 C 541.766 646.347, 545.136 646.466, 544.404 644.750 C 544.111 644.063, 542.002 641.997, 539.718 640.159 L 535.564 636.818 522.429 637.522 C 509.813 638.198, 509.198 638.139, 506.897 636.038 C 505.578 634.835, 500.823 630.970, 496.329 627.449 C 491.835 623.929, 485.932 618.787, 483.213 616.024 C 480.493 613.261, 478.079 611, 477.848 611 C 477.617 611, 476.662 611.766, 475.726 612.703 M 549.245 633.168 C 550.755 634.450, 553.135 637.075, 554.535 639 C 555.934 640.925, 557.961 642.551, 559.040 642.613 C 561.546 642.759, 561.515 642.541, 558.438 638.508 C 555.569 634.746, 552.706 632.639, 549 631.562 L 546.500 630.835 549.245 633.168 M 551 646.441 C 551 649.545, 552.927 651.786, 557.500 654 C 562.539 656.439, 564.083 658.591, 565.035 664.500 L 565.680 668.500 567.340 664.782 C 569.601 659.718, 569.430 657.097, 566.561 652.875 C 564.056 649.189, 559.506 646.451, 554.080 645.366 C 551.612 644.872, 551 645.086, 551 646.441"/>
</svg>