<svg width="512" height="512" viewBox="0 0 512 512" fill="none" xmlns="http://www.w3.org/2000/svg">
  <!-- Stylized Block R -->
  <path d="M80 60 H340 C420 60 440 120 440 170 C440 230 400 280 340 280 H220 V452 H80 V60 Z" fill="currentColor"/>
  <path d="M220 280 L440 452 H300 L140 320 L220 280 Z" fill="currentColor"/>
  
  <!-- Negative Space Raven Silhouette -->
  <path d="M305.626 142.046C302.247 141.258 298.502 140.781 294.629 140.781C281.393 140.781 270.655 149.914 270.655 161.182C270.655 165.419 272.235 169.336 274.952 172.585C270.852 174.195 264.407 177.301 259.945 181.868C255.483 186.435 253.212 195.457 253.054 207.284C255.434 205.787 258.125 204.605 261.026 203.791C253.921 213.633 249.742 225.176 249.742 237.472C249.742 249.03 253.486 259.845 259.913 269.215C255.234 274.659 252.41 281.565 252.41 289.034C252.41 294.512 253.882 299.88 256.638 304.627C254.103 306.402 248.653 308.835 241.979 308.835C221.725 308.835 205.32 318.575 205.32 330.596C205.32 334.896 206.944 338.857 209.73 342.144C205.514 343.837 198.818 347.16 193.992 352.348L193.31 353.081L232.083 416.792L232.765 416.059C246.545 401.275 264.88 393.751 281.636 393.751C298.391 393.751 316.726 401.275 330.507 416.059L331.189 416.792L369.961 353.081L369.279 352.348C364.453 347.16 357.757 343.837 353.541 342.144C356.327 338.857 357.952 334.896 357.952 330.596C357.952 318.575 341.547 308.835 321.292 308.835C314.618 308.835 309.168 306.402 306.633 304.627C309.389 299.88 310.862 294.512 310.862 289.034C310.862 281.565 308.038 274.659 303.359 269.215C309.786 259.845 313.529 249.03 313.529 237.472C313.529 225.176 309.351 213.633 302.245 203.791C305.146 204.605 307.838 205.787 310.217 207.284C310.059 195.457 307.788 186.435 303.326 181.868C298.865 177.301 292.42 174.195 288.319 172.585C291.036 169.336 292.616 165.419 292.616 161.182C292.616 149.914 281.878 140.781 268.643 140.781C264.769 140.781 261.025 141.258 257.646 142.046M255.629 123.689C256.096 123.683 256.565 123.68 257.037 123.68C281.996 123.68 302.231 140.4 302.231 161.027C302.231 181.654 281.996 198.374 257.037 198.374C232.078 198.374 211.843 181.654 211.843 161.027C211.843 140.4 232.078 123.68 257.037 123.68" fill="white"/>
</svg>
